<?xml version="1.0" encoding="UTF-8"?>
<svg id="_Слой_1" data-name="Слой 1" xmlns="http://www.w3.org/2000/svg" viewBox="0 0 36.85 28.346">
  <path d="m35.892,4.923C30.777,1.79,24.794,0,18.425,0S6.074,1.79.96,4.923C-.005,5.52-.296,6.813.333,7.758l2.556,3.879c.676,1.044,2.125,1.193,2.943.298l2.364-2.437c.387-.397.579-.895.579-1.392v-2.537c3.04-1.044,6.271-1.641,9.65-1.641s6.611.597,9.65,1.641v2.537c0,.547.192,1.045.578,1.392l2.365,2.437c.868.895,2.268.746,2.941-.298l2.558-3.879c.627-.945.338-2.238-.626-2.835" style="fill: #b01016;"/>
  <path d="m26.144,10.941v-2.984c0-.846-.627-1.492-1.446-1.492s-1.448.646-1.448,1.492v2.486h-9.65v-2.486c0-.846-.628-1.492-1.448-1.492s-1.448.646-1.448,1.492v2.984l-5.645,5.818c-.723.745-1.108,1.74-1.108,2.834v8.753h28.947v-8.803c0-1.045-.385-2.089-1.11-2.835l-5.645-5.768m-10.614,13.427h-1.929v-1.989h1.929v1.989Zm0-3.979h-1.929v-1.989h1.929v1.989Zm0-3.978h-1.929v-1.989h1.929v1.989Zm3.862,7.957h-1.932v-1.989h1.932v1.989Zm0-3.979h-1.932v-1.989h1.932v1.989Zm0-3.978h-1.932v-1.989h1.932v1.989Zm3.859,7.957h-1.929v-1.989h1.929v1.989Zm0-3.979h-1.929v-1.989h1.929v1.989Zm0-3.978h-1.929v-1.989h1.929v1.989Z" style="fill: #b01016;"/>
</svg>